<svg width="151" height="116" viewBox="0 0 151 116" fill="none" xmlns="http://www.w3.org/2000/svg">
<path d="M15.5703 109.502C17.0411 110.964 17.3841 111.23 18.6416 112.969C17.7621 113.971 16.9751 114.63 15.9277 115.441L15.498 115.613C14.5114 115.354 13.5025 113.95 12.8242 113.136C11.9361 114.044 11.1274 114.814 10.1894 115.672C8.6176 114.644 8.13782 114.312 7.06246 112.794C7.90272 111.627 8.86575 110.644 9.84469 109.596C10.6452 109.953 12.1638 111.846 12.7998 112.596C13.5316 111.59 14.6939 110.436 15.5703 109.502ZM50.5605 102.337C51.478 103.063 52.4078 103.859 53.3095 104.611C54.3118 103.615 54.7703 103.162 55.9091 102.353C56.5564 102.578 58.3137 104.609 58.7812 105.267C54.8196 112.94 54.9269 102.221 51.1787 108.597C46.9846 105.945 47.3215 105.583 50.5605 102.337ZM36.3154 78.1135C43.2478 76.9823 45.0626 84.9857 42.8838 89.9446C42.5507 90.7024 42.1182 91.4083 41.8164 92.1301C42.6642 92.9678 55.7525 92.8454 57.29 91.0793C57.9304 89.1197 56.4275 85.5657 55.6113 83.7424C57.0616 83.3654 58.6269 82.8696 60.0742 82.4416C60.4816 83.8532 60.6084 85.2156 60.8994 86.5852C61.4393 89.1271 60.9487 92.6842 59.3154 94.8137C55.9553 99.1988 46.1041 97.7402 41.2168 97.3821C39.6342 97.1651 37.5235 96.1956 35.9677 96.2151C34.078 96.2401 31.9253 97.6808 29.955 97.7424C28.4815 97.7894 26.997 97.6289 25.5341 97.8157C24.9797 98.5767 24.9979 99.9973 24.5927 100.747C23.6204 102.546 19.8532 104.955 17.9687 105.587C14.1088 106.474 11.8316 107.216 7.80172 106.149C-1.33305 103.729 -0.781256 96.1887 1.20406 88.8371C2.57516 88.9831 3.42544 89.1195 4.7734 89.4114C4.41061 91.0307 4.20153 94.3354 4.32321 95.9641C4.42812 97.3625 4.73726 98.6065 5.90524 99.5041C8.36378 101.391 12.4 101.448 15.3379 101.104C16.7028 100.943 20.0299 100.44 20.8964 99.2073C21.1938 98.7849 21.0856 98.5529 21 98.1409C20.1333 96.9363 18.0109 96.2217 16.5761 95.5139C16.8376 94.0992 17.4632 92.5796 18.0341 91.2688C23.3309 92.7804 26.9115 92.7212 32.3398 92.4993C27.3777 87.5273 29.3368 79.3767 36.3154 78.1135ZM73.6416 83.1311C74.0919 83.61 74.6762 85.6318 74.9677 86.3225C76.6413 90.2858 76.9727 93.4221 75.5009 97.5295C74.2788 100.938 71.7289 104.278 68.4795 106.03C66.3723 107.143 64.8226 106.325 62.6757 105.613C60.8343 105.235 61.7337 103.457 62.1162 102.17C64.1457 102.071 65.8313 102.07 67.6904 101.124C75.8157 96.9905 72.0849 90.7557 69.2285 84.7912C70.6586 83.8654 71.6982 83.6032 73.3271 83.1233L73.6416 83.1311ZM84.5293 66.8157C84.4923 71.3843 84.4839 75.955 84.5039 80.5237C84.5088 83.4003 84.4016 86.6669 84.8125 89.4905C85.0535 91.1493 85.622 91.5727 86.8974 92.4543C87.8611 92.5273 88.8292 92.5675 89.7959 92.5744C95.8013 92.6312 96.2814 91.0523 95.9775 85.3577C97.2569 85.4096 98.2947 85.4073 99.5752 85.3694C99.6028 86.8393 98.9931 91.0626 100.221 92.1155C100.393 92.2632 101.076 92.4356 101.262 92.3039C105.806 89.0939 108.787 83.5256 114.417 81.6926C115.618 81.2997 116.7 80.9697 117.887 80.6438C125.112 82.6447 125.96 84.8866 125.302 92.2522C136.651 94.8639 132.78 83.3074 141.142 82.0325C145.029 82.038 148.2 85.2188 148.777 88.7873C150.561 99.8552 141.3 99.8219 134.495 95.5071C129.549 98.7338 127.727 98.1849 122.392 96.0393C121.163 96.3192 120.034 96.7169 118.742 97.0159C112.771 98.3986 105.7 98.6351 99.7451 97.1506C98.8856 96.9357 97.7475 96.2193 97.0195 95.7942C94.7949 96.938 93.3357 97.7361 90.7744 98.0041C80.4033 99.0889 80.6735 93.3643 80.5859 85.3801L80.5195 73.8635C80.5103 71.802 80.571 69.1067 80.3925 67.0959L80.3662 66.8176C81.753 66.8536 83.1417 66.8526 84.5293 66.8157ZM143.775 88.2893C142.6 87.3242 141.608 87.1424 140.122 87.2864C138.846 87.9689 136.152 90.2843 137.233 91.9768C137.959 93.1131 139.727 93.4627 140.99 93.678C141.441 93.756 141.895 93.8186 142.352 93.8655C143.183 93.8742 144.978 94.0613 145.568 93.3655C146.778 91.9369 144.951 89.2551 143.775 88.2893ZM117.287 86.2424C111.497 86.765 108.871 88.8973 104.983 92.8157C107.096 92.7688 109.209 92.7385 111.323 92.7229C114.137 92.6708 116.862 92.6925 119.662 92.3401C123.702 91.8329 123.645 89.152 120.841 86.7912C119.681 86.5621 118.46 86.279 117.287 86.2424ZM37.0117 82.2424C31.4447 83.9813 34.4567 89.4037 38.8134 90.3655C42.5484 88.5115 42.5964 84.5749 39.1533 82.4045C38.464 82.3653 37.6877 82.3436 37.0117 82.2424ZM36.5644 67.7424C37.795 68.0125 39.1853 70.1561 39.9365 71.1868C39.1413 72.3166 37.6939 73.8127 36.7129 74.8586C35.9195 74.3939 33.9424 72.0604 33.4101 71.217C34.417 69.4 34.8944 68.9434 36.5644 67.7424ZM93.6338 52.8645C95.3643 52.7852 94.9668 56.4826 95.0127 57.6243C95.0706 59.0547 95.0243 60.7213 94.8584 62.1399C92.7218 62.7647 91.3677 62.6282 89.1484 62.6311L87.6367 62.6135C87.5827 60.6753 87.5912 58.7347 87.6601 56.7971C88.8855 55.7799 92.145 53.8276 93.6338 52.8645ZM99.7724 48.2444C102.07 48.1568 103.747 48.0484 106.032 48.4973C106.069 48.6481 106.104 48.8007 106.135 48.9524C106.422 50.3183 106.681 60.5744 105.931 62.3645C105.832 62.6012 105.542 62.5745 105.208 62.6369C102.915 62.6409 100.622 62.6136 98.33 62.5549C97.9711 60.5808 97.9377 50.4406 98.4834 48.7405C99.0113 48.2712 98.9647 48.4074 99.7724 48.2444ZM117.457 41.9631C118.013 42.6035 117.695 60.0417 117.73 62.5725C115.139 62.6091 112.501 62.5916 109.905 62.5998C109.125 61.8033 109.467 51.4127 109.497 49.6448C112.179 47.1243 114.568 44.1873 117.457 41.9631ZM124.79 23.4856C125.244 24.6936 125.132 28.9685 125.139 30.4866L125.167 40.1086C125.174 42.9509 125.497 60.9537 124.699 61.9202C123.603 62.4881 122.118 62.3123 120.875 62.2678C120.471 58.5821 120.787 34.1378 120.412 33.5637C119.347 33.8962 111.261 44.0573 109.205 45.7785L109.038 45.9162C107.057 44.6793 105.166 43.3853 103.207 42.1321L101.594 41.302C97.9758 43.7302 92.6804 50.4996 88.7304 53.0559C87.4119 52.2752 87.1852 52.1249 86.291 50.967C87.0456 49.9295 100.032 37.7535 100.601 37.5139C102.543 36.7021 105.797 40.1388 107.668 40.7903C108.029 40.9157 108.311 41.0262 108.652 40.8371C109.917 40.1346 116.995 32.4683 117.335 31.1702C117.16 30.2232 116.477 29.4942 115.884 28.6848C117.368 27.4655 122.725 24.2681 124.476 23.3645L124.79 23.4856ZM143.884 40.8909C144.628 41.8308 144.385 47.1511 144.123 48.3889C143.521 51.247 142.251 56.9961 140.277 59.0393C139.762 58.9345 139.963 59.0554 139.627 58.6916C139.504 57.0298 141.115 54.9216 141.477 53.3664C142.405 49.369 142.915 45.3256 143.125 41.2327C143.134 41.0562 143.339 40.7767 143.437 40.6389L143.884 40.8909ZM138.157 15.0051C144.296 14.2172 149.904 18.5793 150.648 24.7239C151.395 30.8681 146.994 36.445 140.846 37.1487C134.755 37.845 129.245 33.4956 128.505 27.4114C127.767 21.3265 132.077 15.7858 138.157 15.0051ZM77.5224 21.3743C78.109 21.6395 77.9263 21.4302 78.1406 21.9856C77.8607 23.4511 76.5526 24.5324 75.8339 25.8274C75.2933 26.8018 74.8401 27.7082 74.3974 28.7346C73.9363 29.7894 73.5475 30.8757 73.2343 31.9836C72.8177 33.4756 72.4715 35.8708 71.7441 37.0246C71.2991 36.8729 71.3113 36.8968 70.9638 36.5891C70.6885 35.308 71.4603 32.8569 71.8271 31.6067C72.9446 27.7958 74.787 24.2692 77.5224 21.3743ZM88.8173 5.18675C90.0767 5.3985 90.9749 7.61531 91.3838 8.74437C92.8506 12.7955 94.5709 14.783 89.2724 16.3264C86.8417 17.0343 83.8421 18.8578 81.2343 19.2639C79.6848 18.5779 76.8222 11.5586 77.3662 10.0032C78.6683 8.64628 86.646 5.89629 88.8173 5.18675ZM88.1494 8.24242C86.2636 9.48109 80.6247 10.6753 79.9834 12.2532C80.095 12.7322 80.3869 12.9078 80.7617 13.2444C80.925 13.275 81.196 13.3393 81.3486 13.3371C82.5219 12.9943 89.1166 10.7237 89.6425 10.0608C89.4337 9.21403 89.1067 8.33432 88.1494 8.24242ZM114.812 0.0392912C116.666 -0.166223 118.521 0.441163 119.894 1.70433C121.268 2.96768 122.029 4.7647 121.978 6.63011C121.895 9.80222 119.516 12.4444 116.372 12.8616C114.069 13.1665 111.778 12.2092 110.375 10.3577C108.972 8.50543 108.672 6.04182 109.59 3.90746C110.509 1.77269 112.502 0.295231 114.812 0.0392912ZM100.77 6.09105C101.416 5.93226 104.035 5.85215 104.549 6.25999C104.625 6.78152 104.661 6.54062 104.444 7.01585C103.334 7.75533 100.57 7.77435 99.1298 7.88206C97.7834 7.8052 96.5033 8.86451 95.7422 8.07152C95.6562 6.75077 99.7113 6.19768 100.77 6.09105ZM116.391 3.34886C115.361 0.885744 112.13 2.91934 113.194 5.67796C113.526 4.86806 113.325 4.99745 113.935 4.71117C114.992 3.46506 114.971 4.56702 116.281 4.1516C116.453 3.86723 116.535 3.69157 116.391 3.34886Z" fill="#D9B382"/>
<path d="M138.019 15.3364C144.348 14.5236 150.129 19.0207 150.897 25.356C151.667 31.6914 147.13 37.4409 140.79 38.166C134.511 38.8839 128.83 34.4004 128.067 28.127C127.306 21.8534 131.751 16.1411 138.019 15.3364ZM136.147 25.8524C137.597 26.6795 140.412 27.2045 141.373 28.4152C141.769 28.9135 141.176 30.437 140.534 30.4497C138.896 31.0497 137.557 28.883 136.208 29.64C135.966 30.188 135.979 30.1571 136.091 30.7517C137.29 32.2901 138.069 30.12 139.601 33.8341L140.067 33.7256L140.163 33.553C140.951 32.1909 141.363 31.6309 142.793 30.9248C143.369 29.9996 143.467 29.7991 143.831 28.7731C143.586 28.2682 143.263 27.5494 142.973 27.0915C141.47 26.365 140.101 25.7253 138.486 25.2708C138.404 25.2474 137.869 24.4434 137.894 24.2966C137.747 23.7498 137.734 24.141 137.912 23.4922C139.576 22.3893 142.54 24.2295 143.29 23.1926C142.852 22.1693 141.93 21.7352 140.983 21.1172C140.713 20.4182 140.65 19.8777 139.925 19.5752L139.766 19.788C138.112 21.9871 135.585 22.0121 135.97 24.7816C136.021 25.1398 136.081 25.4967 136.147 25.8524Z" fill="#F78C1F"/>
</svg>
