<svg id="svg" version="1.1" viewBox="0 0 300 300" width="300" height="300" xmlns="http://www.w3.org/2000/svg">
        <defs>
            <clipPath id="clip-1">
                <rect x="0" y="0" transform="scale(0.17361,0.17361)" width="1728" height="1728" fill="none" />
            </clipPath>
        </defs>
        <g clip-path="url(#clip-1)" fill="none" fill-rule="nonzero" stroke="none" stroke-width="1" stroke-linecap="butt"
            stroke-linejoin="miter" stroke-miterlimit="10" stroke-dasharray="" stroke-dashoffset="0" font-family="none"
            font-weight="none" font-size="none" text-anchor="none" style="mix-blend-mode: normal">
            <path
                d="M99.3875,56.62847c1.48351,-0.33351 8.8684,-0.21076 10.74757,-0.21059l23.48038,0.00747l48.1224,-0.0026l12.17361,-0.00052c1.99653,0 6.53819,-0.08542 8.375,0.3401c9.56424,0.3375 18.18229,2.99913 25.79167,8.86771c8.11632,6.35799 13.35764,15.69115 14.56424,25.92917c1.0434,8.20677 0.79688,16.59549 0.80035,24.86944l0.01215,32.89965l-0.00347,34.15434c-0.0191,14.21528 1.12326,31.80208 -8.13542,43.64583c-6.66493,8.64583 -16.52083,14.25347 -27.35764,15.56597c-7.72222,0.97743 -15.97396,0.71701 -23.7934,0.71875l-32.49566,0.00347l-33.84028,0.00174c-16.27431,0.00174 -30.78403,1.53646 -44.59358,-8.7691c-17.76337,-13.25694 -15.93472,-33.68924 -15.94306,-53.37153l0.07431,-36.37569l-0.00226,-30.04184c0.00156,-15.53177 -1.04705,-29.87517 9.09236,-42.78854c5.46562,-6.95174 13.13385,-11.83681 21.7441,-13.85243c4.21927,-0.9691 7.01111,-1.08646 11.18663,-1.5908zM173.27813,185.94618c0.72882,0.42535 1.86597,1.14236 2.72535,1.35764c5.95486,1.48438 13.02604,1.24826 18.99826,-0.13542c1.29167,-0.29861 2.42014,-0.69618 3.64931,-0.97569c5.33507,2.14583 7.15625,2.69444 12.10243,-0.53299c6.80556,4.31597 16.06771,4.35069 14.28299,-6.71875c-0.57639,-3.56944 -3.74826,-6.74983 -7.63542,-6.75573c-8.36285,1.27517 -4.48958,12.83212 -15.84028,10.21927c0.65799,-7.36632 -0.18924,-9.60712 -7.41493,-11.60816c-1.1875,0.32656 -2.2691,0.65608 -3.47049,1.04896c-5.63021,1.83351 -8.61111,7.40122 -13.15451,10.61128c-0.18576,0.13194 -0.86979,-0.03993 -1.04167,-0.1875c-1.22743,-1.05382 -0.61632,-5.27778 -0.6441,-6.74653c-1.28125,0.03819 -2.31823,0.03993 -3.59844,-0.01215c0.30399,5.69618 -0.17465,7.27431 -6.18177,7.21701c-0.96719,-0.00694 -1.93385,-0.04687 -2.89844,-0.11979c-1.27604,-0.88194 -1.8434,-1.30382 -2.0849,-2.96354c-0.41128,-2.82465 -0.30434,-6.0901 -0.30938,-8.96753c-0.01979,-4.56927 -0.01094,-9.13872 0.02639,-13.70781c-1.3875,0.03698 -2.77569,0.03767 -4.16319,0.00208l0.02604,0.27812c0.17865,2.01024 0.11823,4.70538 0.12743,6.76736l0.06597,11.51667c0.08767,7.98437 -0.18316,13.70833 10.18924,12.62326c2.56128,-0.26736 4.01927,-1.06597 6.2441,-2.21007zM108.59878,182.65278c-5.42865,0.22222 -9.00781,0.28125 -14.30521,-1.2309c-0.57101,1.31076 -1.19705,2.82986 -1.45851,4.24479c1.43472,0.70833 3.55729,1.42188 4.42413,2.62674c0.08576,0.41319 0.1941,0.6441 -0.10382,1.06771c-0.86649,1.23264 -4.19427,1.73437 -5.55868,1.89583c-2.93837,0.34375 -6.97431,0.28819 -9.43264,-1.60069c-1.1684,-0.89757 -1.47708,-2.14063 -1.58194,-3.53993c-0.1217,-1.62847 0.08785,-4.93229 0.45069,-6.55208c-1.34861,-0.29167 -2.1974,-0.42882 -3.56927,-0.57465c-1.98559,7.35243 -2.53837,14.89236 6.59688,17.3125c4.0309,1.06771 6.30694,0.32465 10.16753,-0.5625c1.88437,-0.63194 5.65208,-3.03993 6.62413,-4.83854c0.40538,-0.75 0.38594,-2.17187 0.94063,-2.93229c1.46337,-0.1875 2.94705,-0.02604 4.42101,-0.07292c1.97066,-0.06076 4.12257,-1.50347 6.01267,-1.52778c1.5559,-0.02083 3.66597,0.94965 5.24896,1.16667c4.88698,0.35764 14.73941,1.81771 18.09948,-2.56771c1.63368,-2.13021 2.12378,-5.6875 1.58333,-8.22917c-0.29115,-1.36979 -0.41736,-2.7309 -0.825,-4.14271c-1.44757,0.42708 -3.01233,0.92361 -4.46285,1.30069c0.81615,1.82292 2.31979,5.37674 1.67899,7.33681c-1.53767,1.76736 -14.63663,1.88889 -15.47378,1.05035c0.30191,-0.72222 0.7342,-1.42708 1.06736,-2.18576c2.17899,-4.95833 0.3651,-12.96215 -6.56806,-11.83073c-6.97899,1.26337 -8.93854,9.41406 -3.97604,14.38628zM176.03125,138.39722c-0.80729,0.16302 -0.76042,0.02656 -1.28819,0.49583c-0.54687,1.69688 -0.51389,11.84045 -0.15451,13.81493c2.29167,0.05868 4.58507,0.08611 6.87847,0.08212c0.33507,-0.06285 0.62326,-0.0349 0.72222,-0.27257c0.75174,-1.79028 0.49132,-12.05087 0.20486,-13.41181c-0.03125,-0.15226 -0.06597,-0.30399 -0.10243,-0.45521c-2.28646,-0.44913 -3.96181,-0.34097 -6.26042,-0.2533zM165.40799,152.7842c2.21997,-0.00295 3.57292,0.13385 5.70937,-0.49115c0.16632,-1.41892 0.21267,-3.08472 0.15469,-4.51545c-0.04618,-1.14149 0.35278,-4.8408 -1.37951,-4.7599c-1.48941,0.96319 -4.74861,2.91563 -5.97344,3.93264c-0.06927,1.93802 -0.07708,3.87778 -0.02309,5.81632zM138.37552,192.32292c-0.38229,1.28646 -1.28299,3.06597 0.55955,3.44271c2.14757,0.71354 3.69531,1.53125 5.80295,0.41667c3.25,-1.75174 5.79965,-5.09028 7.0217,-8.5c1.47205,-4.10764 1.14132,-7.24306 -0.53281,-11.2066c-0.29167,-0.69097 -0.87535,-2.71528 -1.32587,-3.19167l-0.31545,-0.00764c-1.62899,0.48056 -2.66771,0.74271 -4.09792,1.66806c2.8566,5.96528 6.58837,12.19965 -1.53854,16.33333c-1.85937,0.94618 -3.54375,0.94618 -5.57361,1.04514zM127.43733,198.75c3.74826,-6.37674 3.64115,4.34375 7.60312,-3.32986c-0.46788,-0.65799 -2.22674,-2.69271 -2.87274,-2.91493c-1.13889,0.80903 -1.59705,1.26215 -2.59948,2.25868c-0.90226,-0.75174 -1.83108,-1.54861 -2.74913,-2.27431c-3.23906,3.24653 -3.57587,3.60764 0.61823,6.26042zM112.97153,165.01198c0.98108,-1.04618 2.42882,-2.54184 3.22396,-3.67274c-0.75139,-1.03021 -2.14115,-3.175 -3.37205,-3.44392c-1.66997,1.20139 -2.14792,1.65781 -3.15486,3.47448c0.53073,0.84167 2.50903,3.17726 3.30295,3.64219zM83.32101,202.94618c1.07622,1.5191 1.55521,1.85069 3.1276,2.87847c0.93802,-0.85764 1.74635,-1.62847 2.63455,-2.53646c0.6783,0.81424 1.68663,2.21875 2.67378,2.47743l0.42951,-0.17187c1.04757,-0.81076 1.83403,-1.47049 2.71372,-2.47222c-1.25799,-1.73958 -1.59913,-2.00347 -3.07118,-3.46701c-0.87639,0.93403 -2.03837,2.08854 -2.77031,3.09375c-0.63628,-0.75 -2.15486,-2.6441 -2.95503,-3c-0.97899,1.04861 -1.94236,2.03125 -2.78264,3.19792zM191.07118,90.19253c-2.31076,0.2559 -4.30382,1.73299 -5.22222,3.86771c-0.9184,2.13455 -0.61806,4.59792 0.78472,6.45035c1.40278,1.85243 3.69271,2.80851 5.99653,2.50347c3.14583,-0.41667 5.52431,-3.05816 5.60764,-6.23125c0.05035,-1.86597 -0.71007,-3.66215 -2.08507,-4.92552c-1.37326,-1.26337 -3.22743,-1.87049 -5.0816,-1.66476zM216.53646,149.19201c1.97396,-2.0434 3.24306,-7.79236 3.84549,-10.65017c0.26215,-1.23802 0.50521,-6.56094 -0.23958,-7.49774l-0.44618,-0.25208c-0.09722,0.13767 -0.30382,0.41667 -0.3125,0.59323c-0.21007,4.0934 -0.71875,8.13628 -1.64757,12.1342c-0.36111,1.55521 -1.97396,3.66302 -1.85069,5.32517c0.33854,0.36528 0.13542,0.24236 0.65104,0.3474zM153.78177,111.52726c-2.73559,2.89497 -4.57865,6.42135 -5.69618,10.23229c-0.36667,1.25 -1.13785,3.70087 -0.8625,4.98212c0.34861,0.30868 0.33403,0.28403 0.77951,0.43594c0.7276,-1.15399 1.07361,-3.54931 1.49045,-5.04132c0.31319,-1.10816 0.70174,-2.19358 1.16302,-3.24861c0.44271,-1.02656 0.89566,-1.93281 1.43646,-2.90747c0.71875,-1.29531 2.0276,-2.37535 2.30712,-3.84132c-0.21458,-0.55625 -0.02969,-0.34549 -0.61788,-0.61163zM177.02951,96.24444c-1.05903,0.1066 -5.11354,0.65903 -5.02743,1.97986c0.76024,0.79497 2.03958,-0.2658 3.38681,-0.18889c1.43924,-0.10781 4.20486,-0.12674 5.31424,-0.86649c0.21701,-0.47569 0.18056,-0.23264 0.10417,-0.75573c-0.51389,-0.40799 -3.13368,-0.3276 -3.77778,-0.16875zM193.71528,132.11649c-2.88889,2.22431 -5.27778,5.16111 -7.96007,7.6816c-0.02951,1.76493 -0.37153,12.16042 0.40972,12.95486c2.59549,-0.00816 5.23264,0.00885 7.82465,-0.02778c-0.03472,-2.53229 0.28299,-19.9875 -0.27431,-20.60868zM165.07622,95.33958c-2.17083,0.70937 -10.14913,3.4599 -11.45104,4.81684c-0.54497,1.55417 2.31875,8.57465 3.8684,9.26024c2.60764,-0.4059 5.60712,-2.22934 8.03767,-2.93733c5.3,-1.54358 3.57865,-3.53003 2.11146,-7.58247c-0.40885,-1.12934 -1.30625,-3.3467 -2.56649,-3.55729zM200.73438,113.51701c-1.75,0.90347 -7.10764,4.10174 -8.59201,5.32101c0.59375,0.8099 1.27604,1.53767 1.45139,2.48507c-0.33681,1.29601 -7.4184,8.96545 -8.68229,9.66719c-0.34201,0.18941 -0.62326,0.07882 -0.98437,-0.04687c-1.87153,-0.65156 -5.125,-4.08941 -7.06771,-3.27691c-0.56597,0.23681 -13.55816,12.41858 -14.3099,13.45382c0.89514,1.15885 1.12101,1.30712 2.43993,2.08819c3.95017,-2.55625 9.24497,-9.32587 12.86302,-11.75399l1.61285,0.83056c1.96007,1.25347 3.84896,2.5474 5.8316,3.78455l0.16667,-0.13837c2.05556,-1.72083 10.14236,-11.88177 11.2066,-12.21424c0.37674,0.5401 0.05903,25.01528 0.46354,28.70365c1.24306,0.04444 2.72743,0.22118 3.82465,-0.34705c0.79861,-0.96597 0.47396,-18.97361 0.46701,-21.81215l-0.02778,-9.6217c-0.00694,-1.5184 0.1059,-5.79462 -0.34896,-7.00104zM214.41667,105.15833c-6.07986,0.78056 -10.39062,6.32118 -9.65278,12.40625c0.73958,6.0849 6.25,10.43368 12.34028,9.73733c6.14931,-0.7033 10.55035,-6.28003 9.80382,-12.425c-0.74479,-6.14497 -6.35243,-10.50694 -12.49132,-9.71858z"
                fill="#005250" />
            <path
                d="M193.14063,176.29514c1.17361,0.03646 2.3941,0.31944 3.55382,0.54861c2.80556,2.36111 2.86285,5.04167 -1.17882,5.54861c-2.80035,0.35243 -5.52431,0.3316 -8.33854,0.38368c-2.11458,0.01563 -4.22743,0.04514 -6.34028,0.09201c3.88715,-3.9184 6.51389,-6.05035 12.30382,-6.57292z"
                fill="#005250" />
            <path
                d="M216.54167,176.91667c1.48611,-0.1441 2.47743,0.03819 3.65278,1.00347c1.17535,0.96528 3.00347,3.64757 1.7934,5.07639c-0.59028,0.69618 -2.38542,0.50868 -3.21701,0.5c-0.4566,-0.04687 -0.90972,-0.10937 -1.36111,-0.1875c-1.26389,-0.21528 -3.03125,-0.56424 -3.75694,-1.70139c-1.0816,-1.69271 1.61285,-4.00868 2.88889,-4.69097z"
                fill="#005250" />
            <path
                d="M112.0224,172.95382c0.67639,0.10139 1.45174,0.12309 2.14149,0.16233c3.44462,2.17031 3.39635,6.10608 -0.33941,7.96024c-4.35677,-0.96181 -7.3691,-6.38368 -1.80208,-8.12257z"
                fill="#005250" />
            <path
                d="M214.41667,105.15833c6.13889,-0.78837 11.74653,3.57361 12.49132,9.71858c0.74653,6.14497 -3.65451,11.7217 -9.80382,12.425c-6.09028,0.69635 -11.60069,-3.65243 -12.34028,-9.73733c-0.73785,-6.08507 3.57292,-11.62569 9.65278,-12.40625zM212.60069,115.35833c1.40625,0.80226 4.13715,1.31146 5.06944,2.48576c0.38368,0.48333 -0.19097,1.96111 -0.81424,1.97344c-1.58854,0.58194 -2.88715,-1.51962 -4.19618,-0.78542c-0.23438,0.5316 -0.22222,0.50156 -0.11285,1.0783c1.16319,1.49219 1.9184,-0.61267 3.40451,2.98976l0.45139,-0.10521l0.09375,-0.16736c0.76389,-1.32118 1.16319,-1.86441 2.55035,-2.54931c0.55903,-0.8974 0.65451,-1.09184 1.00694,-2.08698c-0.23785,-0.48976 -0.55035,-1.18698 -0.8316,-1.63108c-1.45833,-0.70469 -2.78646,-1.32517 -4.35243,-1.76597c-0.07986,-0.02274 -0.59896,-0.8026 -0.57465,-0.94497c-0.14236,-0.53038 -0.15451,-0.15087 0.01736,-0.78021c1.61458,-1.06979 4.48958,0.7151 5.21701,-0.29063c-0.42535,-0.99253 -1.31944,-1.41354 -2.23785,-2.01302c-0.26215,-0.67795 -0.32292,-1.20226 -1.02604,-1.49566l-0.15451,0.20642c-1.60417,2.13299 -4.05556,2.15729 -3.68229,4.84358c0.05035,0.3474 0.10764,0.69358 0.17188,1.03854z"
                fill="#f78c1f" />
            <path
                d="M164.00729,98.01771c0.95764,0.09167 1.2842,0.9717 1.49306,1.81858c-0.52552,0.66285 -7.12083,2.93385 -8.2934,3.27639c-0.15278,0.00226 -0.42448,-0.06233 -0.58785,-0.09288c-0.375,-0.33681 -0.66684,-0.51163 -0.7783,-0.99132c0.64132,-1.57795 6.2809,-2.77205 8.16649,-4.01076z"
                fill="#005250" />

            <path
                d="M190.22917,96.57257c-1.06424,-2.75868 2.16667,-4.79201 3.19618,-2.32865c0.1441,0.34271 0.0625,0.51806 -0.10937,0.80243c-1.31076,0.41562 -1.28993,-0.68681 -2.34722,0.55937c-0.60937,0.28628 -0.40799,0.15694 -0.73958,0.96684z"
                fill="#005250" />
            <path
                d="M190.22917,96.57257c0.3316,-0.8099 0.13021,-0.68056 0.73958,-0.96684c0.66667,0.30087 1.19792,0.65347 1.8941,0.50156l-0.31771,0.85451c-0.08681,0.2401 -0.03819,0.14722 -0.1875,0.33611c-0.82986,-0.17882 -1.41493,-0.24566 -2.12847,-0.72535z"
                fill="#012e39" />
        </g>
</svg>
